<?xml version='1.0' encoding='UTF-8'?>
<!DOCTYPE svg PUBLIC "-//W3C//DTD SVG 1.1//EN" "http://www.w3.org/Graphics/SVG/1.1/DTD/svg11.dtd">
<!-- Generated by graphviz version 12.2.1 (20241206.2353)
 -->
<!-- Pages: 1 -->
<svg xmlns="http://www.w3.org/2000/svg" xmlns:xlink="http://www.w3.org/1999/xlink" width="529pt" height="574pt" viewBox="0.00 0.00 529.02 574.25">
  <style>
    @import url("https://fonts.googleapis.com/css?family=Roboto:400,400i,700,700i");
    </style>
  <g id="graph0" class="graph" transform="scale(1 1) rotate(0) translate(4 570.25)">
    <polygon fill="#eeeeee" stroke="none" points="-4,4 -4,-570.25 525.02,-570.25 525.02,4 -4,4"/>
    <!-- User -->
    <g id="node1" class="table-hover">
      <title>User</title>
      <g id="a_node1">
        <a xlink:href="http://User_details.html" xlink:title="&lt;TABLE&gt;">
          <polygon fill="#3f51b5" stroke="none" points="203.75,-539 203.75,-562.25 377,-562.25 377,-539 203.75,-539"/>
          <polygon fill="none" stroke="black" points="203.75,-539 203.75,-562.25 377,-562.25 377,-539 203.75,-539"/>
          <text text-anchor="start" x="276.88" y="-547.85" font-family="Roboto" font-size="12.00" fill="white">User</text>
          <polygon fill="#bbdefb" stroke="none" points="203.75,-515.75 203.75,-539 286.25,-539 286.25,-515.75 203.75,-515.75"/>
          <polygon fill="none" stroke="black" points="203.75,-515.75 203.75,-539 286.25,-539 286.25,-515.75 203.75,-515.75"/>
          <text text-anchor="start" x="239.75" y="-524.6" font-family="Roboto" font-size="12.00">id</text>
          <polygon fill="#bbdefb" stroke="none" points="286.25,-515.75 286.25,-539 377,-539 377,-515.75 286.25,-515.75"/>
          <polygon fill="none" stroke="black" points="286.25,-515.75 286.25,-539 377,-539 377,-515.75 286.25,-515.75"/>
          <text text-anchor="start" x="294.12" y="-524.6" font-family="Roboto" font-size="12.00">INTEGER (PK)</text>
          <polygon fill="#bbdefb" stroke="none" points="203.75,-492.5 203.75,-515.75 286.25,-515.75 286.25,-492.5 203.75,-492.5"/>
          <polygon fill="none" stroke="black" points="203.75,-492.5 203.75,-515.75 286.25,-515.75 286.25,-492.5 203.75,-492.5"/>
          <text text-anchor="start" x="214.62" y="-501.35" font-family="Roboto" font-size="12.00">first_name</text>
          <polygon fill="#bbdefb" stroke="none" points="286.25,-492.5 286.25,-515.75 377,-515.75 377,-492.5 286.25,-492.5"/>
          <polygon fill="none" stroke="black" points="286.25,-492.5 286.25,-515.75 377,-515.75 377,-492.5 286.25,-492.5"/>
          <text text-anchor="start" x="289.25" y="-501.35" font-family="Roboto" font-size="12.00">VARCHAR(30) ()</text>
          <polygon fill="#bbdefb" stroke="none" points="203.75,-469.25 203.75,-492.5 286.25,-492.5 286.25,-469.25 203.75,-469.25"/>
          <polygon fill="none" stroke="black" points="203.75,-469.25 203.75,-492.5 286.25,-492.5 286.25,-469.25 203.75,-469.25"/>
          <text text-anchor="start" x="206.75" y="-478.1" font-family="Roboto" font-size="12.00">middle_name</text>
          <polygon fill="#bbdefb" stroke="none" points="286.25,-469.25 286.25,-492.5 377,-492.5 377,-469.25 286.25,-469.25"/>
          <polygon fill="none" stroke="black" points="286.25,-469.25 286.25,-492.5 377,-492.5 377,-469.25 286.25,-469.25"/>
          <text text-anchor="start" x="289.25" y="-478.1" font-family="Roboto" font-size="12.00">VARCHAR(40) ()</text>
          <polygon fill="#bbdefb" stroke="none" points="203.75,-446 203.75,-469.25 286.25,-469.25 286.25,-446 203.75,-446"/>
          <polygon fill="none" stroke="black" points="203.75,-446 203.75,-469.25 286.25,-469.25 286.25,-446 203.75,-446"/>
          <text text-anchor="start" x="216.12" y="-454.85" font-family="Roboto" font-size="12.00">last_name</text>
          <polygon fill="#bbdefb" stroke="none" points="286.25,-446 286.25,-469.25 377,-469.25 377,-446 286.25,-446"/>
          <polygon fill="none" stroke="black" points="286.25,-446 286.25,-469.25 377,-469.25 377,-446 286.25,-446"/>
          <text text-anchor="start" x="289.25" y="-454.85" font-family="Roboto" font-size="12.00">VARCHAR(30) ()</text>
          <polygon fill="#bbdefb" stroke="none" points="203.75,-422.75 203.75,-446 286.25,-446 286.25,-422.75 203.75,-422.75"/>
          <polygon fill="none" stroke="black" points="203.75,-422.75 203.75,-446 286.25,-446 286.25,-422.75 203.75,-422.75"/>
          <text text-anchor="start" x="211.25" y="-431.6" font-family="Roboto" font-size="12.00">isu_number</text>
          <polygon fill="#bbdefb" stroke="none" points="286.25,-422.75 286.25,-446 377,-446 377,-422.75 286.25,-422.75"/>
          <polygon fill="none" stroke="black" points="286.25,-422.75 286.25,-446 377,-446 377,-422.75 286.25,-422.75"/>
          <text text-anchor="start" x="301.62" y="-431.6" font-family="Roboto" font-size="12.00">INTEGER ()</text>
          <polygon fill="#bbdefb" stroke="none" points="203.75,-399.5 203.75,-422.75 286.25,-422.75 286.25,-399.5 203.75,-399.5"/>
          <polygon fill="none" stroke="black" points="203.75,-399.5 203.75,-422.75 286.25,-422.75 286.25,-399.5 203.75,-399.5"/>
          <text text-anchor="start" x="208.62" y="-408.35" font-family="Roboto" font-size="12.00">tg_nickname</text>
          <polygon fill="#bbdefb" stroke="none" points="286.25,-399.5 286.25,-422.75 377,-422.75 377,-399.5 286.25,-399.5"/>
          <polygon fill="none" stroke="black" points="286.25,-399.5 286.25,-422.75 377,-422.75 377,-399.5 286.25,-399.5"/>
          <text text-anchor="start" x="289.25" y="-408.35" font-family="Roboto" font-size="12.00">VARCHAR(40) ()</text>
          <polygon fill="#bbdefb" stroke="none" points="203.75,-376.25 203.75,-399.5 286.25,-399.5 286.25,-376.25 203.75,-376.25"/>
          <polygon fill="none" stroke="black" points="203.75,-376.25 203.75,-399.5 286.25,-399.5 286.25,-376.25 203.75,-376.25"/>
          <text text-anchor="start" x="229.62" y="-385.1" font-family="Roboto" font-size="12.00">email</text>
          <polygon fill="#bbdefb" stroke="none" points="286.25,-376.25 286.25,-399.5 377,-399.5 377,-376.25 286.25,-376.25"/>
          <polygon fill="none" stroke="black" points="286.25,-376.25 286.25,-399.5 377,-399.5 377,-376.25 286.25,-376.25"/>
          <text text-anchor="start" x="289.25" y="-385.1" font-family="Roboto" font-size="12.00">VARCHAR(50) ()</text>
        </a>
      </g>
    </g>
    <!-- Resume -->
    <g id="node2" class="table-hover">
      <title>Resume</title>
      <g id="a_node2">
        <a xlink:href="http://Resume_details.html" xlink:title="&lt;TABLE&gt;">
          <polygon fill="#3f51b5" stroke="none" points="8,-294.75 8,-318 164.75,-318 164.75,-294.75 8,-294.75"/>
          <polygon fill="none" stroke="black" points="8,-294.75 8,-318 164.75,-318 164.75,-294.75 8,-294.75"/>
          <text text-anchor="start" x="63.5" y="-303.6" font-family="Roboto" font-size="12.00" fill="white">Resume</text>
          <polygon fill="#bbdefb" stroke="none" points="8,-271.5 8,-294.75 83.75,-294.75 83.75,-271.5 8,-271.5"/>
          <polygon fill="none" stroke="black" points="8,-271.5 8,-294.75 83.75,-294.75 83.75,-271.5 8,-271.5"/>
          <text text-anchor="start" x="40.62" y="-280.35" font-family="Roboto" font-size="12.00">id</text>
          <polygon fill="#bbdefb" stroke="none" points="83.75,-271.5 83.75,-294.75 164.75,-294.75 164.75,-271.5 83.75,-271.5"/>
          <polygon fill="none" stroke="black" points="83.75,-271.5 83.75,-294.75 164.75,-294.75 164.75,-271.5 83.75,-271.5"/>
          <text text-anchor="start" x="86.75" y="-280.35" font-family="Roboto" font-size="12.00">INTEGER (PK)</text>
          <polygon fill="#bbdefb" stroke="none" points="8,-248.25 8,-271.5 83.75,-271.5 83.75,-248.25 8,-248.25"/>
          <polygon fill="none" stroke="black" points="8,-248.25 8,-271.5 83.75,-271.5 83.75,-248.25 8,-248.25"/>
          <text text-anchor="start" x="25.25" y="-257.1" font-family="Roboto" font-size="12.00">user_id</text>
          <polygon fill="#bbdefb" stroke="none" points="83.75,-248.25 83.75,-271.5 164.75,-271.5 164.75,-248.25 83.75,-248.25"/>
          <polygon fill="none" stroke="black" points="83.75,-248.25 83.75,-271.5 164.75,-271.5 164.75,-248.25 83.75,-248.25"/>
          <text text-anchor="start" x="94.25" y="-257.1" font-family="Roboto" font-size="12.00">INTEGER ()</text>
          <polygon fill="#bbdefb" stroke="none" points="8,-225 8,-248.25 83.75,-248.25 83.75,-225 8,-225"/>
          <polygon fill="none" stroke="black" points="8,-225 8,-248.25 83.75,-248.25 83.75,-225 8,-225"/>
          <text text-anchor="start" x="25.62" y="-233.85" font-family="Roboto" font-size="12.00">header</text>
          <polygon fill="#bbdefb" stroke="none" points="83.75,-225 83.75,-248.25 164.75,-248.25 164.75,-225 83.75,-225"/>
          <polygon fill="none" stroke="black" points="83.75,-225 83.75,-248.25 164.75,-248.25 164.75,-225 83.75,-225"/>
          <text text-anchor="start" x="92.38" y="-233.85" font-family="Roboto" font-size="12.00">VARCHAR ()</text>
          <polygon fill="#bbdefb" stroke="none" points="8,-201.75 8,-225 83.75,-225 83.75,-201.75 8,-201.75"/>
          <polygon fill="none" stroke="black" points="8,-201.75 8,-225 83.75,-225 83.75,-201.75 8,-201.75"/>
          <text text-anchor="start" x="11" y="-210.6" font-family="Roboto" font-size="12.00">resume_text</text>
          <polygon fill="#bbdefb" stroke="none" points="83.75,-201.75 83.75,-225 164.75,-225 164.75,-201.75 83.75,-201.75"/>
          <polygon fill="none" stroke="black" points="83.75,-201.75 83.75,-225 164.75,-225 164.75,-201.75 83.75,-201.75"/>
          <text text-anchor="start" x="92.38" y="-210.6" font-family="Roboto" font-size="12.00">VARCHAR ()</text>
        </a>
      </g>
    </g>
    <!-- User&#45;&gt;Resume -->
    <g id="edge1" class="edge-hover edge-from-None edge-to-None">
      <title>User-&gt;Resume</title>
      <g id="a_edge1">
        <a xlink:title="Relation between User and Resume">
          <path fill="none" stroke="#1e88e5" stroke-dasharray="5,2" d="M195.94,-403.84C177.14,-388.76 158.36,-371.91 142.62,-354.25 136.38,-347.24 130.44,-339.45 124.93,-331.43"/>
          <polygon fill="#1e88e5" stroke="#1e88e5" points="127.93,-329.62 119.5,-323.21 122.09,-333.48 127.93,-329.62"/>
        </a>
      </g>
      <text text-anchor="middle" x="162.5" y="-344.75" font-family="Roboto" font-size="10.00">resumes</text>
    </g>
    <!-- Response -->
    <g id="node3" class="table-hover">
      <title>Response</title>
      <g id="a_node3">
        <a xlink:href="http://Response_details.html" xlink:title="&lt;TABLE&gt;">
          <polygon fill="#3f51b5" stroke="none" points="198.75,-294.75 198.75,-318 384,-318 384,-294.75 198.75,-294.75"/>
          <polygon fill="none" stroke="black" points="198.75,-294.75 198.75,-318 384,-318 384,-294.75 198.75,-294.75"/>
          <text text-anchor="start" x="263.62" y="-303.6" font-family="Roboto" font-size="12.00" fill="white">Response</text>
          <polygon fill="#bbdefb" stroke="none" points="198.75,-271.5 198.75,-294.75 286.5,-294.75 286.5,-271.5 198.75,-271.5"/>
          <polygon fill="none" stroke="black" points="198.75,-271.5 198.75,-294.75 286.5,-294.75 286.5,-271.5 198.75,-271.5"/>
          <text text-anchor="start" x="237.38" y="-280.35" font-family="Roboto" font-size="12.00">id</text>
          <polygon fill="#bbdefb" stroke="none" points="286.5,-271.5 286.5,-294.75 384,-294.75 384,-271.5 286.5,-271.5"/>
          <polygon fill="none" stroke="black" points="286.5,-271.5 286.5,-294.75 384,-294.75 384,-271.5 286.5,-271.5"/>
          <text text-anchor="start" x="297.75" y="-280.35" font-family="Roboto" font-size="12.00">INTEGER (PK)</text>
          <polygon fill="#bbdefb" stroke="none" points="198.75,-248.25 198.75,-271.5 286.5,-271.5 286.5,-248.25 198.75,-248.25"/>
          <polygon fill="none" stroke="black" points="198.75,-248.25 198.75,-271.5 286.5,-271.5 286.5,-248.25 198.75,-248.25"/>
          <text text-anchor="start" x="201.75" y="-257.1" font-family="Roboto" font-size="12.00">respondent_id</text>
          <polygon fill="#bbdefb" stroke="none" points="286.5,-248.25 286.5,-271.5 384,-271.5 384,-248.25 286.5,-248.25"/>
          <polygon fill="none" stroke="black" points="286.5,-248.25 286.5,-271.5 384,-271.5 384,-248.25 286.5,-248.25"/>
          <text text-anchor="start" x="305.25" y="-257.1" font-family="Roboto" font-size="12.00">INTEGER ()</text>
          <polygon fill="#bbdefb" stroke="none" points="198.75,-225 198.75,-248.25 286.5,-248.25 286.5,-225 198.75,-225"/>
          <polygon fill="none" stroke="black" points="198.75,-225 198.75,-248.25 286.5,-248.25 286.5,-225 198.75,-225"/>
          <text text-anchor="start" x="214.88" y="-233.85" font-family="Roboto" font-size="12.00">project_id</text>
          <polygon fill="#bbdefb" stroke="none" points="286.5,-225 286.5,-248.25 384,-248.25 384,-225 286.5,-225"/>
          <polygon fill="none" stroke="black" points="286.5,-225 286.5,-248.25 384,-248.25 384,-225 286.5,-225"/>
          <text text-anchor="start" x="305.25" y="-233.85" font-family="Roboto" font-size="12.00">INTEGER ()</text>
          <polygon fill="#bbdefb" stroke="none" points="198.75,-201.75 198.75,-225 286.5,-225 286.5,-201.75 198.75,-201.75"/>
          <polygon fill="none" stroke="black" points="198.75,-201.75 198.75,-225 286.5,-225 286.5,-201.75 198.75,-201.75"/>
          <text text-anchor="start" x="229.5" y="-210.6" font-family="Roboto" font-size="12.00">note</text>
          <polygon fill="#bbdefb" stroke="none" points="286.5,-201.75 286.5,-225 384,-225 384,-201.75 286.5,-201.75"/>
          <polygon fill="none" stroke="black" points="286.5,-201.75 286.5,-225 384,-225 384,-201.75 286.5,-201.75"/>
          <text text-anchor="start" x="289.5" y="-210.6" font-family="Roboto" font-size="12.00">VARCHAR(200) ()</text>
        </a>
      </g>
    </g>
    <!-- User&#45;&gt;Response -->
    <g id="edge2" class="edge-hover edge-from-None edge-to-None">
      <title>User-&gt;Response</title>
      <g id="a_edge2">
        <a xlink:title="Relation between User and Response">
          <path fill="none" stroke="#1e88e5" stroke-dasharray="5,2" d="M254.66,-372.57C253.6,-361.62 253.87,-350.59 256.12,-340 256.65,-337.55 257.25,-335.08 257.92,-332.61"/>
          <polygon fill="#1e88e5" stroke="#1e88e5" points="261.21,-333.83 260.81,-323.25 254.52,-331.77 261.21,-333.83"/>
        </a>
      </g>
      <text text-anchor="middle" x="279.75" y="-344.75" font-family="Roboto" font-size="10.00">responses</text>
    </g>
    <!-- Project -->
    <g id="node4" class="table-hover">
      <title>Project</title>
      <g id="a_node4">
        <a xlink:href="http://Project_details.html" xlink:title="&lt;TABLE&gt;">
          <polygon fill="#3f51b5" stroke="none" points="291.88,-120.25 291.88,-143.5 492.88,-143.5 492.88,-120.25 291.88,-120.25"/>
          <polygon fill="none" stroke="black" points="291.88,-120.25 291.88,-143.5 492.88,-143.5 492.88,-120.25 291.88,-120.25"/>
          <text text-anchor="start" x="372.5" y="-129.1" font-family="Roboto" font-size="12.00" fill="white">Project</text>
          <polygon fill="#bbdefb" stroke="none" points="291.88,-97 291.88,-120.25 395.38,-120.25 395.38,-97 291.88,-97"/>
          <polygon fill="none" stroke="black" points="291.88,-97 291.88,-120.25 395.38,-120.25 395.38,-97 291.88,-97"/>
          <text text-anchor="start" x="338.38" y="-105.85" font-family="Roboto" font-size="12.00">id</text>
          <polygon fill="#bbdefb" stroke="none" points="395.38,-97 395.38,-120.25 492.88,-120.25 492.88,-97 395.38,-97"/>
          <polygon fill="none" stroke="black" points="395.38,-97 395.38,-120.25 492.88,-120.25 492.88,-97 395.38,-97"/>
          <text text-anchor="start" x="406.62" y="-105.85" font-family="Roboto" font-size="12.00">INTEGER (PK)</text>
          <polygon fill="#bbdefb" stroke="none" points="291.88,-73.75 291.88,-97 395.38,-97 395.38,-73.75 291.88,-73.75"/>
          <polygon fill="none" stroke="black" points="291.88,-73.75 291.88,-97 395.38,-97 395.38,-73.75 291.88,-73.75"/>
          <text text-anchor="start" x="327.5" y="-82.6" font-family="Roboto" font-size="12.00">name</text>
          <polygon fill="#bbdefb" stroke="none" points="395.38,-73.75 395.38,-97 492.88,-97 492.88,-73.75 395.38,-73.75"/>
          <polygon fill="none" stroke="black" points="395.38,-73.75 395.38,-97 492.88,-97 492.88,-73.75 395.38,-73.75"/>
          <text text-anchor="start" x="398.38" y="-82.6" font-family="Roboto" font-size="12.00">VARCHAR(200) ()</text>
          <polygon fill="#bbdefb" stroke="none" points="291.88,-50.5 291.88,-73.75 395.38,-73.75 395.38,-50.5 291.88,-50.5"/>
          <polygon fill="none" stroke="black" points="291.88,-50.5 291.88,-73.75 395.38,-73.75 395.38,-50.5 291.88,-50.5"/>
          <text text-anchor="start" x="311.38" y="-59.35" font-family="Roboto" font-size="12.00">description</text>
          <polygon fill="#bbdefb" stroke="none" points="395.38,-50.5 395.38,-73.75 492.88,-73.75 492.88,-50.5 395.38,-50.5"/>
          <polygon fill="none" stroke="black" points="395.38,-50.5 395.38,-73.75 492.88,-73.75 492.88,-50.5 395.38,-50.5"/>
          <text text-anchor="start" x="412.25" y="-59.35" font-family="Roboto" font-size="12.00">VARCHAR ()</text>
          <polygon fill="#bbdefb" stroke="none" points="291.88,-27.25 291.88,-50.5 395.38,-50.5 395.38,-27.25 291.88,-27.25"/>
          <polygon fill="none" stroke="black" points="291.88,-27.25 291.88,-50.5 395.38,-50.5 395.38,-27.25 291.88,-27.25"/>
          <text text-anchor="start" x="316.25" y="-36.1" font-family="Roboto" font-size="12.00">author_id</text>
          <polygon fill="#bbdefb" stroke="none" points="395.38,-27.25 395.38,-50.5 492.88,-50.5 492.88,-27.25 395.38,-27.25"/>
          <polygon fill="none" stroke="black" points="395.38,-27.25 395.38,-50.5 492.88,-50.5 492.88,-27.25 395.38,-27.25"/>
          <text text-anchor="start" x="414.12" y="-36.1" font-family="Roboto" font-size="12.00">INTEGER ()</text>
          <polygon fill="#bbdefb" stroke="none" points="291.88,-4 291.88,-27.25 395.38,-27.25 395.38,-4 291.88,-4"/>
          <polygon fill="none" stroke="black" points="291.88,-4 291.88,-27.25 395.38,-27.25 395.38,-4 291.88,-4"/>
          <text text-anchor="start" x="294.88" y="-12.85" font-family="Roboto" font-size="12.00">max_participants</text>
          <polygon fill="#bbdefb" stroke="none" points="395.38,-4 395.38,-27.25 492.88,-27.25 492.88,-4 395.38,-4"/>
          <polygon fill="none" stroke="black" points="395.38,-4 395.38,-27.25 492.88,-27.25 492.88,-4 395.38,-4"/>
          <text text-anchor="start" x="412.25" y="-12.85" font-family="Roboto" font-size="12.00">VARCHAR ()</text>
        </a>
      </g>
    </g>
    <!-- User&#45;&gt;Project -->
    <g id="edge3" class="edge-hover edge-from-None edge-to-None">
      <title>User-&gt;Project</title>
      <g id="a_edge3">
        <a xlink:title="Relation between User and Project">
          <path fill="none" stroke="#1e88e5" stroke-dasharray="5,2" d="M376.28,-372.57C386.56,-356.61 395.48,-339.52 401.38,-322 419.01,-269.6 416.63,-207.38 409.91,-158.47"/>
          <polygon fill="#1e88e5" stroke="#1e88e5" points="413.41,-158.17 408.49,-148.79 406.48,-159.19 413.41,-158.17"/>
        </a>
      </g>
      <text text-anchor="middle" x="442.68" y="-257.5" font-family="Roboto" font-size="10.00">projects_led</text>
    </g>
    <!-- Resume&#45;&gt;User -->
    <g id="edge4" class="edge-hover edge-from-None edge-to-None">
      <title>Resume-&gt;User</title>
      <g id="a_edge4">
        <a xlink:title="Relation between Resume and User">
          <path fill="none" stroke="#1e88e5" stroke-dasharray="5,2" d="M162.96,-321.83C169.67,-327.81 176.23,-333.92 182.38,-340 190.06,-347.6 197.78,-355.69 205.38,-363.98"/>
          <polygon fill="#1e88e5" stroke="#1e88e5" points="202.6,-366.13 211.9,-371.19 207.79,-361.43 202.6,-366.13"/>
        </a>
      </g>
      <text text-anchor="middle" x="205.6" y="-344.75" font-family="Roboto" font-size="10.00">user</text>
    </g>
    <!-- Response&#45;&gt;User -->
    <g id="edge5" class="edge-hover edge-from-None edge-to-None">
      <title>Response-&gt;User</title>
      <g id="a_edge5">
        <a xlink:title="Relation between Response and User">
          <path fill="none" stroke="#1e88e5" stroke-dasharray="5,2" d="M301.54,-321.68C302.29,-327.85 302.93,-334.04 303.38,-340 303.89,-346.8 304.09,-353.8 304.06,-360.86"/>
          <polygon fill="#1e88e5" stroke="#1e88e5" points="300.56,-360.77 303.84,-370.84 307.56,-360.92 300.56,-360.77"/>
        </a>
      </g>
      <text text-anchor="middle" x="331.01" y="-344.75" font-family="Roboto" font-size="10.00">respondent</text>
    </g>
    <!-- Response&#45;&gt;Project -->
    <g id="edge6" class="edge-hover edge-from-None edge-to-None">
      <title>Response-&gt;Project</title>
      <g id="a_edge6">
        <a xlink:title="Relation between Response and Project">
          <path fill="none" stroke="#1e88e5" stroke-dasharray="5,2" d="M296.34,-197.97C298.72,-186.8 302.16,-175.51 307.12,-165.5 308.57,-162.6 310.13,-159.72 311.8,-156.88"/>
          <polygon fill="#1e88e5" stroke="#1e88e5" points="314.62,-158.96 317.04,-148.65 308.72,-155.2 314.62,-158.96"/>
        </a>
      </g>
      <text text-anchor="middle" x="323.25" y="-170.25" font-family="Roboto" font-size="10.00">project</text>
    </g>
    <!-- Project&#45;&gt;User -->
    <g id="edge7" class="edge-hover edge-from-None edge-to-None">
      <title>Project-&gt;User</title>
      <g id="a_edge7">
        <a xlink:title="Relation between Project and User">
          <path fill="none" stroke="#1e88e5" stroke-dasharray="5,2" d="M450.68,-147.29C460.44,-163.08 469.09,-180.31 474.38,-197.75 490.38,-250.6 498.38,-272.27 474.38,-322 456.87,-358.28 425.5,-388.33 393.57,-411.55"/>
          <polygon fill="#1e88e5" stroke="#1e88e5" points="391.94,-408.42 385.79,-417.05 395.98,-414.14 391.94,-408.42"/>
        </a>
      </g>
      <text text-anchor="middle" x="505.27" y="-257.5" font-family="Roboto" font-size="10.00">author</text>
    </g>
    <!-- Project&#45;&gt;Response -->
    <g id="edge8" class="edge-hover edge-from-None edge-to-None">
      <title>Project-&gt;Response</title>
      <g id="a_edge8">
        <a xlink:title="Relation between Project and Response">
          <path fill="none" stroke="#1e88e5" stroke-dasharray="5,2" d="M356.61,-147.44C350.98,-158.34 345.12,-169.39 339.38,-179.75 337.89,-182.42 336.36,-185.14 334.81,-187.87"/>
          <polygon fill="#1e88e5" stroke="#1e88e5" points="331.79,-186.09 329.82,-196.5 337.85,-189.59 331.79,-186.09"/>
        </a>
      </g>
      <text text-anchor="middle" x="370.64" y="-170.25" font-family="Roboto" font-size="10.00">responses</text>
    </g>
  </g>
</svg>
